<svg version="1.1" id="Layer_1" xmlns="http://www.w3.org/2000/svg" xmlns:xlink="http://www.w3.org/1999/xlink" x="0px" y="0px"
	 width="100%" viewBox="0 0 1024 1024" enable-background="new 0 0 1024 1024" xml:space="preserve">
<path fill="#000000" opacity="1.000000" stroke="none" 
	d="
M469.000000,1025.000000 
	C312.666656,1025.000000 156.833328,1025.000000 1.000000,1025.000000 
	C1.000000,683.666687 1.000000,342.333344 1.000000,1.000000 
	C342.333344,1.000000 683.666687,1.000000 1025.000000,1.000000 
	C1025.000000,342.333344 1025.000000,683.666687 1025.000000,1025.000000 
	C839.833313,1025.000000 654.666687,1025.000000 469.000000,1025.000000 
M475.999817,506.543640 
	C475.324738,498.046692 475.426270,489.400787 473.830444,481.080444 
	C468.844940,455.086731 459.221985,430.808380 444.278046,408.879730 
	C434.625092,394.714966 422.885315,382.370789 409.814758,371.215485 
	C394.702332,358.317505 377.919739,348.268768 359.493500,341.096710 
	C347.383545,336.383209 335.027283,332.174042 321.920563,330.966888 
	C311.175171,329.977142 300.444366,328.728699 289.677429,328.116058 
	C284.296600,327.809906 278.833527,328.508575 273.436646,329.044586 
	C267.713196,329.613037 261.825867,329.843414 256.359436,331.427124 
	C243.167007,335.249146 229.812561,338.915009 217.217773,344.275238 
	C206.221771,348.955048 195.918060,355.458832 185.771530,361.887604 
	C172.925385,370.026794 162.072037,380.683319 152.416504,392.317108 
	C145.219025,400.989227 138.296982,410.135681 132.862671,419.961517 
	C126.470360,431.519531 121.607887,443.951355 116.466454,456.166107 
	C110.735497,469.781342 108.610909,484.317108 107.561775,498.879730 
	C106.859879,508.622375 107.457901,518.506165 108.109459,528.284424 
	C108.671082,536.712769 109.258263,545.311829 111.399925,553.421875 
	C114.531258,565.279724 118.519783,576.987366 123.119789,588.364014 
	C130.711823,607.140564 142.335144,623.490723 155.952148,638.375916 
	C167.714401,651.233582 180.914612,662.431641 195.912445,671.429077 
	C210.837296,680.382690 226.500305,687.743286 243.425095,691.882385 
	C252.981934,694.219666 262.800964,695.590393 272.563263,696.958801 
	C289.811981,699.376404 307.183319,699.022949 324.174561,695.693909 
	C336.369720,693.304443 348.268372,689.072632 360.041534,684.930176 
	C381.690521,677.312927 400.566711,664.872559 417.100342,649.156433 
	C425.276825,641.384277 432.544373,632.570007 439.617767,623.742126 
	C452.511292,607.650452 461.384338,589.230469 467.843536,569.813232 
	C474.540649,549.680908 476.944092,528.772888 475.999817,506.543640 
M918.999512,514.499023 
	C919.265747,494.487457 916.405457,475.070312 910.193359,455.908112 
	C902.445251,432.007355 890.254028,410.811218 874.160706,391.811249 
	C863.512756,379.240265 851.054321,368.366577 837.392761,359.248138 
	C813.629211,343.386993 787.521118,333.032043 758.929016,330.135559 
	C747.455750,328.973267 735.825439,329.005829 724.272339,329.113251 
	C716.544189,329.185120 708.660706,329.569611 701.135315,331.170776 
	C680.659119,335.527466 660.897827,342.062195 642.818848,353.000153 
	C625.734253,363.336517 609.943298,375.091003 596.848694,390.456055 
	C583.207764,406.462219 571.974426,423.767120 563.940674,443.220398 
	C555.256531,464.248840 550.423767,486.057831 550.069824,508.794403 
	C549.970093,515.204468 550.299622,521.672363 551.084290,528.033325 
	C552.332703,538.154053 553.575012,548.332031 555.813477,558.261841 
	C559.896973,576.376404 567.199951,593.237793 576.951294,609.110107 
	C590.657349,631.419495 608.070007,650.093018 629.486938,665.167419 
	C646.571533,677.192505 665.013184,686.390137 685.227661,691.473633 
	C697.111023,694.462036 709.321228,696.939026 721.508789,697.730896 
	C736.889465,698.730225 752.280212,697.683105 767.725403,695.320374 
	C786.863647,692.392639 804.362915,685.491333 821.152100,676.790344 
	C840.811096,666.602051 857.864990,652.799438 872.638550,636.053406 
	C885.533081,621.437256 895.949463,605.447388 903.775574,587.664429 
	C913.897705,564.664429 919.256409,540.677307 918.999512,514.499023 
z"/>
<path fill="#FEFEFE" opacity="1.000000" stroke="none" 
	d="
M475.999817,507.037720 
	C476.944092,528.772888 474.540649,549.680908 467.843536,569.813232 
	C461.384338,589.230469 452.511292,607.650452 439.617767,623.742126 
	C432.544373,632.570007 425.276825,641.384277 417.100342,649.156433 
	C400.566711,664.872559 381.690521,677.312927 360.041534,684.930176 
	C348.268372,689.072632 336.369720,693.304443 324.174561,695.693909 
	C307.183319,699.022949 289.811981,699.376404 272.563263,696.958801 
	C262.800964,695.590393 252.981934,694.219666 243.425095,691.882385 
	C226.500305,687.743286 210.837296,680.382690 195.912445,671.429077 
	C180.914612,662.431641 167.714401,651.233582 155.952148,638.375916 
	C142.335144,623.490723 130.711823,607.140564 123.119789,588.364014 
	C118.519783,576.987366 114.531258,565.279724 111.399925,553.421875 
	C109.258263,545.311829 108.671082,536.712769 108.109459,528.284424 
	C107.457901,518.506165 106.859879,508.622375 107.561775,498.879730 
	C108.610909,484.317108 110.735497,469.781342 116.466454,456.166107 
	C121.607887,443.951355 126.470360,431.519531 132.862671,419.961517 
	C138.296982,410.135681 145.219025,400.989227 152.416504,392.317108 
	C162.072037,380.683319 172.925385,370.026794 185.771530,361.887604 
	C195.918060,355.458832 206.221771,348.955048 217.217773,344.275238 
	C229.812561,338.915009 243.167007,335.249146 256.359436,331.427124 
	C261.825867,329.843414 267.713196,329.613037 273.436646,329.044586 
	C278.833527,328.508575 284.296600,327.809906 289.677429,328.116058 
	C300.444366,328.728699 311.175171,329.977142 321.920563,330.966888 
	C335.027283,332.174042 347.383545,336.383209 359.493500,341.096710 
	C377.919739,348.268768 394.702332,358.317505 409.814758,371.215485 
	C422.885315,382.370789 434.625092,394.714966 444.278046,408.879730 
	C459.221985,430.808380 468.844940,455.086731 473.830444,481.080444 
	C475.426270,489.400787 475.324738,498.046692 475.999817,507.037720 
M163.529663,631.019409 
	C167.678391,635.169373 171.744003,639.406616 175.992523,643.451782 
	C185.910034,652.894409 197.095901,660.586426 209.164597,667.009155 
	C228.100143,677.086487 248.081772,683.545288 269.493774,686.200195 
	C283.478180,687.934143 297.405609,688.390564 311.251678,686.825439 
	C329.202087,684.796265 346.518433,680.077759 363.145416,672.550720 
	C380.913635,664.506958 396.747589,653.882812 410.895996,640.595886 
	C422.154816,630.022644 431.511627,618.012329 439.790527,604.910889 
	C456.750122,578.072144 464.480194,548.665710 465.913055,517.340088 
	C466.190063,511.283875 465.594666,505.147736 464.939362,499.098541 
	C464.030151,490.704712 463.280396,482.221313 461.397736,474.020630 
	C457.732788,458.056427 452.450958,442.515564 443.741425,428.555603 
	C437.083862,417.884613 430.154755,407.180847 421.914612,397.741547 
	C404.801422,378.138062 384.177338,363.037872 359.955933,352.909821 
	C341.282776,345.101715 321.855103,340.625000 301.836487,339.150055 
	C284.445068,337.868652 267.118530,339.651001 250.164963,344.013977 
	C215.399124,352.960999 185.770294,370.283661 161.909393,397.432892 
	C148.956848,412.170502 138.831512,428.493164 131.135101,446.448883 
	C118.606445,475.678253 115.161163,506.272308 119.240074,537.472473 
	C121.931267,558.057861 128.326584,577.831604 138.577667,596.166565 
	C145.484741,608.520569 153.235825,620.227661 163.529663,631.019409 
z"/>
<path fill="#FEFEFE" opacity="1.000000" stroke="none" 
	d="
M918.999512,514.997803 
	C919.256409,540.677307 913.897705,564.664429 903.775574,587.664429 
	C895.949463,605.447388 885.533081,621.437256 872.638550,636.053406 
	C857.864990,652.799438 840.811096,666.602051 821.152100,676.790344 
	C804.362915,685.491333 786.863647,692.392639 767.725403,695.320374 
	C752.280212,697.683105 736.889465,698.730225 721.508789,697.730896 
	C709.321228,696.939026 697.111023,694.462036 685.227661,691.473633 
	C665.013184,686.390137 646.571533,677.192505 629.486938,665.167419 
	C608.070007,650.093018 590.657349,631.419495 576.951294,609.110107 
	C567.199951,593.237793 559.896973,576.376404 555.813477,558.261841 
	C553.575012,548.332031 552.332703,538.154053 551.084290,528.033325 
	C550.299622,521.672363 549.970093,515.204468 550.069824,508.794403 
	C550.423767,486.057831 555.256531,464.248840 563.940674,443.220398 
	C571.974426,423.767120 583.207764,406.462219 596.848694,390.456055 
	C609.943298,375.091003 625.734253,363.336517 642.818848,353.000153 
	C660.897827,342.062195 680.659119,335.527466 701.135315,331.170776 
	C708.660706,329.569611 716.544189,329.185120 724.272339,329.113251 
	C735.825439,329.005829 747.455750,328.973267 758.929016,330.135559 
	C787.521118,333.032043 813.629211,343.386993 837.392761,359.248138 
	C851.054321,368.366577 863.512756,379.240265 874.160706,391.811249 
	C890.254028,410.811218 902.445251,432.007355 910.193359,455.908112 
	C916.405457,475.070312 919.265747,494.487457 918.999512,514.997803 
M909.000610,514.474426 
	C907.612610,501.168823 907.427551,487.600494 904.590698,474.611328 
	C898.341064,445.996460 885.038513,420.512573 865.779785,398.433868 
	C851.276367,381.806732 833.944336,368.425964 814.410950,358.165100 
	C792.868774,346.849030 769.638000,340.730988 745.476929,339.243774 
	C733.569092,338.510803 721.472717,339.982727 709.518005,341.074036 
	C691.701782,342.700378 674.832703,348.341187 658.959290,356.179413 
	C638.752747,366.157318 620.727356,379.229584 605.734680,396.503082 
	C594.088623,409.920685 584.479065,424.335541 576.775146,440.341034 
	C567.370239,459.880463 562.414551,480.440857 561.149841,501.836945 
	C560.151001,518.734436 561.131958,535.631592 564.946716,552.287659 
	C568.963562,569.826477 575.400208,586.492493 584.572815,601.800110 
	C596.727051,622.083496 612.125244,639.765137 631.356812,653.903687 
	C646.915527,665.341980 663.799561,674.325989 682.217102,679.826111 
	C702.375671,685.846069 723.051636,689.381897 744.275574,686.981140 
	C755.266235,685.737854 766.510681,685.407532 777.161011,682.745972 
	C804.419006,675.934326 828.868286,663.062561 849.940125,644.429688 
	C868.435608,628.075012 882.857483,608.546204 893.065918,585.913025 
	C903.187988,563.471313 908.403137,540.010193 909.000610,514.474426 
z"/>
<path fill="#000000" opacity="1.000000" stroke="none" 
	d="
M163.270294,630.769287 
	C153.235825,620.227661 145.484741,608.520569 138.577667,596.166565 
	C128.326584,577.831604 121.931267,558.057861 119.240074,537.472473 
	C115.161163,506.272308 118.606445,475.678253 131.135101,446.448883 
	C138.831512,428.493164 148.956848,412.170502 161.909393,397.432892 
	C185.770294,370.283661 215.399124,352.960999 250.164963,344.013977 
	C267.118530,339.651001 284.445068,337.868652 301.836487,339.150055 
	C321.855103,340.625000 341.282776,345.101715 359.955933,352.909821 
	C384.177338,363.037872 404.801422,378.138062 421.914612,397.741547 
	C430.154755,407.180847 437.083862,417.884613 443.741425,428.555603 
	C452.450958,442.515564 457.732788,458.056427 461.397736,474.020630 
	C463.280396,482.221313 464.030151,490.704712 464.939362,499.098541 
	C465.594666,505.147736 466.190063,511.283875 465.913055,517.340088 
	C464.480194,548.665710 456.750122,578.072144 439.790527,604.910889 
	C431.511627,618.012329 422.154816,630.022644 410.895996,640.595886 
	C396.747589,653.882812 380.913635,664.506958 363.145416,672.550720 
	C346.518433,680.077759 329.202087,684.796265 311.251678,686.825439 
	C297.405609,688.390564 283.478180,687.934143 269.493774,686.200195 
	C248.081772,683.545288 228.100143,677.086487 209.164597,667.009155 
	C197.095901,660.586426 185.910034,652.894409 175.992523,643.451782 
	C171.744003,639.406616 167.678391,635.169373 163.270294,630.769287 
M277.036438,446.648285 
	C272.346130,455.214355 267.392334,463.648438 263.020325,472.373962 
	C253.870758,490.634552 250.884018,509.952698 253.998322,530.181396 
	C256.858307,548.758179 266.113251,563.479431 281.130066,574.547913 
	C286.196442,578.282166 291.635620,579.857910 297.736298,575.781006 
	C316.139038,563.483032 325.726593,545.877502 327.840637,524.392639 
	C329.725922,505.233124 325.474091,486.906616 316.951782,469.625702 
	C309.989197,455.507355 301.625702,442.352478 290.226013,430.587097 
	C285.800323,435.943970 281.630310,440.991364 277.036438,446.648285 
M253.995560,482.521393 
	C256.052216,477.484528 258.258423,472.500031 260.054657,467.371948 
	C260.475006,466.171906 259.983887,463.667938 259.101349,463.152771 
	C252.337936,459.204651 245.540573,455.233215 238.421432,452.001068 
	C232.406189,449.270111 225.945786,447.519714 219.547409,445.288239 
	C218.588257,451.288025 217.161926,456.240265 217.131607,461.201050 
	C217.061951,472.602234 216.840683,484.111633 218.251144,495.380585 
	C219.538239,505.663971 221.796036,516.122925 225.599106,525.722839 
	C230.943649,539.213806 239.753876,550.767212 251.374451,559.783936 
	C256.163696,563.500061 261.364594,566.685608 266.378265,570.112488 
	C266.725830,569.703796 267.073395,569.295044 267.420929,568.886353 
	C266.623383,567.772827 265.745819,566.707397 265.041656,565.537598 
	C261.328552,559.369324 257.229584,553.385681 254.065826,546.944458 
	C247.843933,534.276978 248.338821,520.477295 249.205536,506.957886 
	C249.714523,499.018524 252.302490,491.212372 253.995560,482.521393 
M327.973938,545.187622 
	C323.244141,553.439270 318.514343,561.690979 313.823486,569.874756 
	C313.932159,569.839111 314.513733,569.734924 315.012085,569.472656 
	C327.547150,562.875244 337.683807,553.463989 345.931152,542.114136 
	C357.549164,526.125610 362.794556,507.673248 363.777283,488.295746 
	C364.489014,474.261780 363.146606,460.123688 362.692505,445.115509 
	C346.277679,449.538269 332.394531,455.677155 319.718994,464.981293 
	C325.148743,477.077484 328.965973,489.313660 331.371277,502.247314 
	C334.091156,516.872559 332.207062,530.579895 327.973938,545.187622 
M366.959625,558.549683 
	C388.743683,540.936951 401.711029,517.899963 408.907867,490.619537 
	C395.175232,488.683105 381.866241,486.281494 368.060883,489.399261 
	C364.726624,530.201050 347.102631,561.524902 307.960938,578.875732 
	C317.052917,578.223938 325.775177,576.948669 334.382874,575.130920 
	C346.420593,572.589050 356.541168,566.034241 366.959625,558.549683 
M184.955734,523.511780 
	C208.816040,566.361389 247.395599,580.214539 273.219086,578.049927 
	C271.189301,577.021912 270.184814,576.466614 269.143311,575.992737 
	C257.273834,570.592590 246.737167,563.412354 238.003189,553.586609 
	C223.418839,537.179199 216.013351,517.894531 213.829941,496.239685 
	C213.514191,493.108215 214.638611,487.724487 208.339828,488.001984 
	C196.572937,488.520447 184.805161,489.018890 172.565643,489.545990 
	C174.659653,502.153870 179.480759,512.573181 184.955734,523.511780 
M261.728821,583.000610 
	C235.356461,579.991150 213.688400,568.146790 196.926285,548.116394 
	C184.950424,553.453857 175.338089,560.947937 167.564911,570.849121 
	C165.805878,573.089722 165.058868,574.380310 168.216705,576.088867 
	C175.825775,580.205750 182.959732,585.320801 190.828140,588.808594 
	C201.280991,593.441956 212.355255,596.714417 223.937393,596.910828 
	C231.811569,597.044373 239.733704,596.679382 247.574219,595.917786 
	C259.137146,594.794678 269.220337,589.595581 278.830170,582.999756 
	C273.446411,582.999756 268.062653,582.999756 261.728821,583.000610 
M353.983948,572.520142 
	C337.760071,581.197693 320.309784,584.271790 301.748352,583.928040 
	C307.990906,587.673950 314.269409,590.634949 320.777405,592.951111 
	C334.804596,597.943359 349.249512,598.021545 363.841217,596.026062 
	C381.862122,593.561523 398.091492,586.749573 413.066833,576.562866 
	C415.246460,575.080261 415.793640,573.696228 414.348755,571.952759 
	C406.720886,562.748596 398.024597,554.755310 387.042023,549.705322 
	C385.955536,549.205750 383.619904,550.081726 382.564026,551.068420 
	C373.989685,559.080566 365.368591,566.987793 353.983948,572.520142 
z"/>
<path fill="#000000" opacity="1.000000" stroke="none" 
	d="
M909.000732,514.967041 
	C908.403137,540.010193 903.187988,563.471313 893.065918,585.913025 
	C882.857483,608.546204 868.435608,628.075012 849.940125,644.429688 
	C828.868286,663.062561 804.419006,675.934326 777.161011,682.745972 
	C766.510681,685.407532 755.266235,685.737854 744.275574,686.981140 
	C723.051636,689.381897 702.375671,685.846069 682.217102,679.826111 
	C663.799561,674.325989 646.915527,665.341980 631.356812,653.903687 
	C612.125244,639.765137 596.727051,622.083496 584.572815,601.800110 
	C575.400208,586.492493 568.963562,569.826477 564.946716,552.287659 
	C561.131958,535.631592 560.151001,518.734436 561.149841,501.836945 
	C562.414551,480.440857 567.370239,459.880463 576.775146,440.341034 
	C584.479065,424.335541 594.088623,409.920685 605.734680,396.503082 
	C620.727356,379.229584 638.752747,366.157318 658.959290,356.179413 
	C674.832703,348.341187 691.701782,342.700378 709.518005,341.074036 
	C721.472717,339.982727 733.569092,338.510803 745.476929,339.243774 
	C769.638000,340.730988 792.868774,346.849030 814.410950,358.165100 
	C833.944336,368.425964 851.276367,381.806732 865.779785,398.433868 
	C885.038513,420.512573 898.341064,445.996460 904.590698,474.611328 
	C907.427551,487.600494 907.612610,501.168823 909.000732,514.967041 
M830.964783,600.687805 
	C827.384399,591.633118 823.803955,582.578430 820.014038,572.993896 
	C824.816528,568.984070 829.792725,565.005615 834.541748,560.772339 
	C836.301819,559.203491 838.690308,557.080322 838.764099,555.133179 
	C838.933594,550.658203 838.151184,546.074097 837.218323,541.647461 
	C835.811462,534.971497 836.820618,531.734253 841.838379,529.625488 
	C847.450012,527.267212 853.182556,525.180298 858.710144,522.643433 
	C863.733948,520.337708 868.553467,517.586731 873.463013,515.032043 
	C873.487061,514.312805 873.511108,513.593567 873.535095,512.874268 
	C861.372253,507.449890 849.209473,502.025513 836.469910,496.343903 
	C837.308105,489.847595 838.380981,483.405121 838.849060,476.919037 
	C839.019531,474.557281 838.494873,471.377014 836.993286,469.811035 
	C832.943726,465.587646 828.364563,461.809143 823.667114,458.292938 
	C820.757507,456.115082 820.575134,454.212341 821.918579,451.032928 
	C825.967712,441.450134 829.711609,431.736145 833.420776,422.014618 
	C833.878845,420.814026 833.928223,418.786102 833.217529,418.000000 
	C832.508728,417.216095 830.414062,416.990509 829.256287,417.416016 
	C819.039673,421.171082 808.822998,424.949280 798.778564,429.134155 
	C795.929871,430.321045 794.157166,430.103241 792.370850,427.859619 
	C789.737732,424.552490 787.276611,421.084656 784.409302,417.994232 
	C781.205017,414.540710 778.350342,410.769257 772.307007,411.837982 
	C766.073364,412.940308 759.607178,412.727509 753.434937,413.079193 
	C748.476807,402.102203 743.788879,391.562653 738.904053,381.115112 
	C738.302185,379.827881 736.649536,379.031891 735.483765,378.008270 
	C734.653320,379.043671 733.564697,379.961884 733.033081,381.132935 
	C728.594360,390.909851 724.325256,400.764526 719.799988,410.500458 
	C719.274841,411.630341 717.515198,412.840820 716.302063,412.868103 
	C713.226746,412.937317 710.129089,412.027618 707.054321,412.100494 
	C700.249573,412.261902 692.657166,409.711182 687.948792,417.690674 
	C686.068237,420.877777 683.308044,423.537872 681.028931,426.499908 
	C678.683044,429.548828 676.117554,430.693878 672.191528,429.057587 
	C662.876709,425.175262 653.428955,421.607330 643.989014,418.033783 
	C642.171082,417.345551 640.143372,417.211853 637.414734,416.661438 
	C638.061707,419.278931 638.298035,420.882660 638.851257,422.368347 
	C642.537476,432.267273 646.403015,442.101715 649.903503,452.064880 
	C650.432007,453.569092 649.990051,456.274841 648.918762,457.326782 
	C644.969116,461.205017 640.369446,464.422089 636.426880,468.306580 
	C634.757202,469.951630 633.141418,472.653168 633.183899,474.841858 
	C633.300354,480.842407 634.298645,486.826843 634.970215,492.815155 
	C635.243835,495.254822 634.920227,496.929901 632.099243,498.068390 
	C622.299377,502.023376 612.624695,506.295624 602.978638,510.617401 
	C601.451477,511.301605 600.317566,512.863647 599.001892,514.019836 
	C600.399292,515.352844 601.570679,517.188171 603.231567,517.935669 
	C612.577209,522.141663 622.105164,525.946472 631.402466,530.252014 
	C633.015320,530.998901 634.831116,533.499817 634.807434,535.165771 
	C634.743347,539.672607 633.371094,544.154541 633.228638,548.668701 
	C633.121582,552.061096 632.944580,556.524475 634.859131,558.686890 
	C639.010437,563.375977 644.642029,566.723389 649.291565,571.026428 
	C650.343689,572.000122 650.530396,574.869385 649.971924,576.466125 
	C646.484863,586.436096 642.620544,596.273499 639.034241,606.210083 
	C638.577026,607.476929 638.464600,609.836304 639.156860,610.325867 
	C640.231628,611.086060 642.327637,611.182617 643.657166,610.679382 
	C654.563904,606.550415 665.393372,602.217346 676.547913,597.827576 
	C681.711304,603.581787 686.808044,609.386169 692.082458,615.024292 
	C693.027649,616.034668 694.757385,616.988220 696.038879,616.886353 
	C700.878784,616.501648 705.687378,615.698792 710.500122,615.000671 
	C716.993103,614.058716 718.514038,615.260559 721.060547,621.336487 
	C724.778931,630.208801 728.907104,638.912659 733.028748,647.608643 
	C733.526306,648.658447 734.981445,649.602112 736.154907,649.861694 
	C736.939514,650.035339 738.498962,649.140625 738.880737,648.331787 
	C743.672668,638.179260 748.224976,627.912720 753.100708,617.801819 
	C753.726501,616.504272 755.832825,615.138062 757.250549,615.140869 
	C763.321472,615.153015 769.390076,615.837280 775.462708,615.886780 
	C777.174805,615.900757 779.350464,615.029724 780.536621,613.809448 
	C785.435059,608.770142 790.035095,603.440735 794.786377,598.171936 
	C806.852417,602.714966 819.092224,607.323425 832.691589,612.443726 
	C832.809265,610.081482 833.194336,608.183716 832.908936,606.392883 
	C832.638916,604.698914 831.664856,603.117126 830.964783,600.687805 
z"/>
<path fill="#FFFFFF" opacity="1.000000" stroke="none" 
	d="
M277.248383,446.343506 
	C281.630310,440.991364 285.800323,435.943970 290.226013,430.587097 
	C301.625702,442.352478 309.989197,455.507355 316.951782,469.625702 
	C325.474091,486.906616 329.725922,505.233124 327.840637,524.392639 
	C325.726593,545.877502 316.139038,563.483032 297.736298,575.781006 
	C291.635620,579.857910 286.196442,578.282166 281.130066,574.547913 
	C266.113251,563.479431 256.858307,548.758179 253.998322,530.181396 
	C250.884018,509.952698 253.870758,490.634552 263.020325,472.373962 
	C267.392334,463.648438 272.346130,455.214355 277.248383,446.343506 
z"/>
<path fill="#FEFEFE" opacity="1.000000" stroke="none" 
	d="
M253.975449,482.933838 
	C252.302490,491.212372 249.714523,499.018524 249.205536,506.957886 
	C248.338821,520.477295 247.843933,534.276978 254.065826,546.944458 
	C257.229584,553.385681 261.328552,559.369324 265.041656,565.537598 
	C265.745819,566.707397 266.623383,567.772827 267.420929,568.886353 
	C267.073395,569.295044 266.725830,569.703796 266.378265,570.112488 
	C261.364594,566.685608 256.163696,563.500061 251.374451,559.783936 
	C239.753876,550.767212 230.943649,539.213806 225.599106,525.722839 
	C221.796036,516.122925 219.538239,505.663971 218.251144,495.380585 
	C216.840683,484.111633 217.061951,472.602234 217.131607,461.201050 
	C217.161926,456.240265 218.588257,451.288025 219.547409,445.288239 
	C225.945786,447.519714 232.406189,449.270111 238.421432,452.001068 
	C245.540573,455.233215 252.337936,459.204651 259.101349,463.152771 
	C259.983887,463.667938 260.475006,466.171906 260.054657,467.371948 
	C258.258423,472.500031 256.052216,477.484528 253.975449,482.933838 
z"/>
<path fill="#FEFFFE" opacity="1.000000" stroke="none" 
	d="
M327.988831,544.779053 
	C332.207062,530.579895 334.091156,516.872559 331.371277,502.247314 
	C328.965973,489.313660 325.148743,477.077484 319.718994,464.981293 
	C332.394531,455.677155 346.277679,449.538269 362.692505,445.115509 
	C363.146606,460.123688 364.489014,474.261780 363.777283,488.295746 
	C362.794556,507.673248 357.549164,526.125610 345.931152,542.114136 
	C337.683807,553.463989 327.547150,562.875244 315.012085,569.472656 
	C314.513733,569.734924 313.932159,569.839111 313.823486,569.874756 
	C318.514343,561.690979 323.244141,553.439270 327.988831,544.779053 
z"/>
<path fill="#FEFFFE" opacity="1.000000" stroke="none" 
	d="
M366.655151,558.758667 
	C356.541168,566.034241 346.420593,572.589050 334.382874,575.130920 
	C325.775177,576.948669 317.052917,578.223938 307.960938,578.875732 
	C347.102631,561.524902 364.726624,530.201050 368.060883,489.399261 
	C381.866241,486.281494 395.175232,488.683105 408.907867,490.619537 
	C401.711029,517.899963 388.743683,540.936951 366.655151,558.758667 
z"/>
<path fill="#FEFEFE" opacity="1.000000" stroke="none" 
	d="
M184.692902,523.229675 
	C179.480759,512.573181 174.659653,502.153870 172.565643,489.545990 
	C184.805161,489.018890 196.572937,488.520447 208.339828,488.001984 
	C214.638611,487.724487 213.514191,493.108215 213.829941,496.239685 
	C216.013351,517.894531 223.418839,537.179199 238.003189,553.586609 
	C246.737167,563.412354 257.273834,570.592590 269.143311,575.992737 
	C270.184814,576.466614 271.189301,577.021912 273.219086,578.049927 
	C247.395599,580.214539 208.816040,566.361389 184.692902,523.229675 
z"/>
<path fill="#FEFFFE" opacity="1.000000" stroke="none" 
	d="
M262.203857,583.000183 
	C268.062653,582.999756 273.446411,582.999756 278.830170,582.999756 
	C269.220337,589.595581 259.137146,594.794678 247.574219,595.917786 
	C239.733704,596.679382 231.811569,597.044373 223.937393,596.910828 
	C212.355255,596.714417 201.280991,593.441956 190.828140,588.808594 
	C182.959732,585.320801 175.825775,580.205750 168.216705,576.088867 
	C165.058868,574.380310 165.805878,573.089722 167.564911,570.849121 
	C175.338089,560.947937 184.950424,553.453857 196.926285,548.116394 
	C213.688400,568.146790 235.356461,579.991150 262.203857,583.000183 
z"/>
<path fill="#FEFFFE" opacity="1.000000" stroke="none" 
	d="
M354.284119,572.279114 
	C365.368591,566.987793 373.989685,559.080566 382.564026,551.068420 
	C383.619904,550.081726 385.955536,549.205750 387.042023,549.705322 
	C398.024597,554.755310 406.720886,562.748596 414.348755,571.952759 
	C415.793640,573.696228 415.246460,575.080261 413.066833,576.562866 
	C398.091492,586.749573 381.862122,593.561523 363.841217,596.026062 
	C349.249512,598.021545 334.804596,597.943359 320.777405,592.951111 
	C314.269409,590.634949 307.990906,587.673950 301.748352,583.928040 
	C320.309784,584.271790 337.760071,581.197693 354.284119,572.279114 
z"/>
<path fill="#FEFDFD" opacity="1.000000" stroke="none" 
	d="
M830.982605,601.086914 
	C831.664856,603.117126 832.638916,604.698914 832.908936,606.392883 
	C833.194336,608.183716 832.809265,610.081482 832.691589,612.443726 
	C819.092224,607.323425 806.852417,602.714966 794.786377,598.171936 
	C790.035095,603.440735 785.435059,608.770142 780.536621,613.809448 
	C779.350464,615.029724 777.174805,615.900757 775.462708,615.886780 
	C769.390076,615.837280 763.321472,615.153015 757.250549,615.140869 
	C755.832825,615.138062 753.726501,616.504272 753.100708,617.801819 
	C748.224976,627.912720 743.672668,638.179260 738.880737,648.331787 
	C738.498962,649.140625 736.939514,650.035339 736.154907,649.861694 
	C734.981445,649.602112 733.526306,648.658447 733.028748,647.608643 
	C728.907104,638.912659 724.778931,630.208801 721.060547,621.336487 
	C718.514038,615.260559 716.993103,614.058716 710.500122,615.000671 
	C705.687378,615.698792 700.878784,616.501648 696.038879,616.886353 
	C694.757385,616.988220 693.027649,616.034668 692.082458,615.024292 
	C686.808044,609.386169 681.711304,603.581787 676.547913,597.827576 
	C665.393372,602.217346 654.563904,606.550415 643.657166,610.679382 
	C642.327637,611.182617 640.231628,611.086060 639.156860,610.325867 
	C638.464600,609.836304 638.577026,607.476929 639.034241,606.210083 
	C642.620544,596.273499 646.484863,586.436096 649.971924,576.466125 
	C650.530396,574.869385 650.343689,572.000122 649.291565,571.026428 
	C644.642029,566.723389 639.010437,563.375977 634.859131,558.686890 
	C632.944580,556.524475 633.121582,552.061096 633.228638,548.668701 
	C633.371094,544.154541 634.743347,539.672607 634.807434,535.165771 
	C634.831116,533.499817 633.015320,530.998901 631.402466,530.252014 
	C622.105164,525.946472 612.577209,522.141663 603.231567,517.935669 
	C601.570679,517.188171 600.399292,515.352844 599.001831,514.019775 
	C600.317566,512.863647 601.451477,511.301605 602.978638,510.617401 
	C612.624695,506.295624 622.299377,502.023376 632.099243,498.068390 
	C634.920227,496.929901 635.243835,495.254822 634.970215,492.815155 
	C634.298645,486.826843 633.300354,480.842407 633.183899,474.841858 
	C633.141418,472.653168 634.757202,469.951630 636.426880,468.306580 
	C640.369446,464.422089 644.969116,461.205017 648.918762,457.326782 
	C649.990051,456.274841 650.432007,453.569092 649.903503,452.064880 
	C646.403015,442.101715 642.537476,432.267273 638.851257,422.368347 
	C638.298035,420.882660 638.061707,419.278931 637.414734,416.661438 
	C640.143372,417.211853 642.171082,417.345551 643.989014,418.033783 
	C653.428955,421.607330 662.876709,425.175262 672.191528,429.057587 
	C676.117554,430.693878 678.683044,429.548828 681.028931,426.499908 
	C683.308044,423.537872 686.068237,420.877777 687.948792,417.690674 
	C692.657166,409.711182 700.249573,412.261902 707.054321,412.100494 
	C710.129089,412.027618 713.226746,412.937317 716.302063,412.868103 
	C717.515198,412.840820 719.274841,411.630341 719.799988,410.500458 
	C724.325256,400.764526 728.594360,390.909851 733.033081,381.132935 
	C733.564697,379.961884 734.653320,379.043671 735.483765,378.008240 
	C736.649536,379.031891 738.302185,379.827881 738.904053,381.115112 
	C743.788879,391.562653 748.476807,402.102203 753.434937,413.079193 
	C759.607178,412.727509 766.073364,412.940308 772.307007,411.837982 
	C778.350342,410.769257 781.205017,414.540710 784.409302,417.994232 
	C787.276611,421.084656 789.737732,424.552490 792.370850,427.859619 
	C794.157166,430.103241 795.929871,430.321045 798.778564,429.134155 
	C808.822998,424.949280 819.039673,421.171082 829.256287,417.416016 
	C830.414062,416.990509 832.508728,417.216095 833.217529,418.000000 
	C833.928223,418.786102 833.878845,420.814026 833.420776,422.014618 
	C829.711609,431.736145 825.967712,441.450134 821.918579,451.032928 
	C820.575134,454.212341 820.757507,456.115082 823.667114,458.292938 
	C828.364563,461.809143 832.943726,465.587646 836.993286,469.811035 
	C838.494873,471.377014 839.019531,474.557281 838.849060,476.919037 
	C838.380981,483.405121 837.308105,489.847595 836.469910,496.343903 
	C849.209473,502.025513 861.372253,507.449890 873.535095,512.874268 
	C873.511108,513.593567 873.487061,514.312805 873.463013,515.032043 
	C868.553467,517.586731 863.733948,520.337708 858.710144,522.643433 
	C853.182556,525.180298 847.450012,527.267212 841.838379,529.625488 
	C836.820618,531.734253 835.811462,534.971497 837.218323,541.647461 
	C838.151184,546.074097 838.933594,550.658203 838.764099,555.133179 
	C838.690308,557.080322 836.301819,559.203491 834.541748,560.772339 
	C829.792725,565.005615 824.816528,568.984070 820.014038,572.993896 
	C823.803955,582.578430 827.384399,591.633118 830.982605,601.086914 
M709.197876,491.778534 
	C708.862183,491.647034 708.526428,491.515533 708.190735,491.384033 
	C708.433411,491.948059 708.676086,492.512054 708.997375,493.816040 
	C710.720398,496.138031 710.462952,501.290039 716.483215,499.056885 
	C713.758423,496.359924 711.669373,494.292206 709.197876,491.778534 
M761.919922,492.637024 
	C759.842468,494.482941 757.765015,496.328827 755.687561,498.174713 
	C756.023499,498.770721 756.359436,499.366730 756.695312,499.962738 
	C758.120056,499.425690 760.005371,499.274353 760.856934,498.257355 
	C762.013367,496.876251 762.378784,494.832886 763.644348,492.879974 
	C763.684387,492.340179 763.724365,491.800385 763.764404,491.260590 
	C763.324463,491.575562 762.884521,491.890503 761.919922,492.637024 
M710.078979,535.363342 
	C712.156677,533.517334 714.234375,531.671326 716.312073,529.825317 
	C715.975830,529.229370 715.639648,528.633484 715.303406,528.037598 
	C713.877869,528.573486 711.991028,528.722961 711.139526,529.739624 
	C709.983032,531.120422 709.618652,533.164673 708.353271,535.118042 
	C708.313354,535.658264 708.273438,536.198425 708.233582,536.738647 
	C708.673828,536.424133 709.114075,536.109619 710.078979,535.363342 
M820.802124,594.221619 
	C821.137695,594.352844 821.473267,594.484070 821.808960,594.615295 
	C821.566528,594.051392 821.324036,593.487488 821.001221,592.162170 
	C819.109070,587.456665 817.216980,582.751099 815.248962,577.856812 
	C812.674561,579.054565 810.115173,580.245422 807.942444,580.723633 
	C807.654663,580.124390 807.366882,579.525146 807.004639,578.152710 
	C807.766846,576.748840 808.205872,574.936523 809.357666,574.024902 
	C811.874329,572.032959 813.142334,570.363464 811.522461,566.887207 
	C808.504211,560.409790 806.080200,553.655579 803.310730,546.772583 
	C796.426941,549.778320 789.648926,552.737793 782.845459,555.708435 
	C790.899353,563.928894 798.665771,571.855896 806.748718,580.164856 
	C807.039124,580.570007 807.329529,580.975098 808.171509,581.754761 
	C812.254272,585.761841 816.337036,589.768921 820.802124,594.221619 
M656.879700,429.355896 
	C656.339844,429.315887 655.799927,429.275848 655.260071,429.235840 
	C655.575012,429.675812 655.890015,430.115753 656.635925,431.081207 
	C660.426514,434.940277 664.217102,438.799377 668.110901,442.763458 
	C668.926514,441.357819 669.274048,440.246338 670.016724,439.566284 
	C673.550049,436.330597 672.145752,435.005615 668.264282,433.926056 
	C664.456848,432.867096 660.797607,431.274994 656.879700,429.355896 
M816.120850,599.643677 
	C816.660645,599.683350 817.200439,599.723083 817.740295,599.762817 
	C817.426575,599.323059 817.112854,598.883301 816.369812,597.916321 
	C811.907654,593.632751 807.445496,589.349182 803.305481,585.374878 
	C802.010315,588.521057 800.989746,591.000305 799.997559,593.410583 
	C805.448120,595.351440 810.687561,597.217163 816.120850,599.643677 
M819.896851,435.643036 
	C815.767273,439.298645 811.637756,442.954254 807.273987,446.817200 
	C810.308350,448.442780 812.534546,449.635406 815.329407,451.132660 
	C817.345215,445.856354 819.214050,440.964783 821.643738,435.879547 
	C821.683777,435.339783 821.723755,434.800049 821.763733,434.260284 
	C821.323914,434.574768 820.884155,434.889221 819.896851,435.643036 
M656.840149,598.997986 
	C661.873657,597.057739 666.907166,595.117493 670.214294,593.842651 
	C670.363708,590.412354 669.598694,587.474365 670.731812,586.090027 
	C673.356445,582.883362 674.660645,586.909851 676.534851,587.976562 
	C677.877869,588.741028 679.656860,590.220520 680.671692,589.844299 
	C688.249939,587.034668 695.686157,583.841858 703.375427,580.683533 
	C700.102600,573.780273 697.070129,567.384094 694.037720,560.987854 
	C693.193054,560.466125 692.348389,559.944397 691.503723,559.422668 
	C679.410583,572.421326 667.317505,585.419922 654.778809,598.800720 
	C654.647095,599.136169 654.515442,599.471680 654.383728,599.807129 
	C654.947388,599.564697 655.511047,599.322266 656.840149,598.997986 
M814.136780,429.992157 
	C809.161316,431.696167 804.185852,433.400208 798.951904,435.192749 
	C800.306641,437.192596 801.519409,438.982849 802.659912,440.666443 
	C796.703369,449.031616 795.670410,438.023041 792.282654,438.080353 
	C783.998047,441.237732 776.104370,444.246155 768.204590,447.256897 
	C771.382690,454.279266 774.505798,461.180176 777.657593,468.144409 
	C790.523804,455.464844 803.149170,443.022552 816.220398,430.197723 
	C816.352356,429.862244 816.484253,429.526764 816.616272,429.191315 
	C816.052185,429.433838 815.488037,429.676361 814.136780,429.992157 
M752.500916,574.997192 
	C755.889771,576.242310 759.278625,577.487366 763.092896,578.888794 
	C766.389893,571.426453 769.661804,564.020996 773.141174,556.145874 
	C765.040527,552.060669 756.913330,547.962097 748.393250,543.665344 
	C745.344116,552.561035 742.383728,561.197876 739.353882,570.037292 
	C743.436340,571.666565 747.563660,573.313721 752.500916,574.997192 
M724.969971,480.307587 
	C727.195618,473.802155 729.536133,467.331390 731.523438,460.753937 
	C731.822754,459.763306 730.779175,457.523438 729.835938,457.138855 
	C724.061829,454.784851 718.074768,452.954651 712.293030,450.617432 
	C709.823364,449.619049 708.851624,450.182434 707.827454,452.460541 
	C705.001770,458.745819 701.942261,464.925964 698.619385,471.893677 
	C706.636597,476.203796 714.640442,480.506775 722.926453,484.961395 
	C723.490662,483.565430 724.015686,482.266479 724.969971,480.307587 
M671.042664,540.343933 
	C678.448181,544.008667 685.853638,547.673340 693.438354,551.426758 
	C697.729858,543.481506 701.834167,536.027466 705.691833,528.447815 
	C705.979919,527.881775 704.716370,525.770935 703.811829,525.471008 
	C695.784790,522.809631 687.676086,520.394897 679.701782,517.941406 
	C676.744263,525.329346 673.896545,532.442932 671.042664,540.343933 
M744.032959,473.313843 
	C745.572144,477.244598 747.111328,481.175354 748.597412,484.970337 
	C756.959717,480.430054 764.984314,476.073120 772.786255,471.837067 
	C769.298157,464.151581 765.927979,456.725861 762.644287,449.490784 
	C754.788757,452.376495 746.899963,455.274384 739.180969,458.109894 
	C740.857422,463.118195 742.427063,467.807404 744.032959,473.313843 
M793.040771,507.561951 
	C795.748535,500.927246 798.456238,494.292542 801.164001,487.657806 
	C793.375366,484.147736 785.841248,480.752380 777.985291,477.212006 
	C773.972595,485.201538 769.904297,493.301666 765.889404,501.295471 
	C766.476318,501.924011 766.750488,502.484833 767.164734,502.621765 
	C775.053894,505.229645 782.946960,507.829010 790.893860,510.250763 
	C791.358948,510.392548 792.286804,509.015747 793.040771,507.561951 
M725.503540,549.999512 
	C724.799927,547.957214 724.096252,545.914917 723.255737,543.475525 
	C714.814331,547.901489 706.794434,552.106506 698.800354,556.297974 
	C702.350769,564.249329 705.664001,571.669434 708.822937,578.744141 
	C716.911011,575.814941 724.404968,573.100891 732.127747,570.303955 
	C730.082092,563.790100 728.023254,557.234436 725.503540,549.999512 
M798.467041,533.968750 
	C796.371704,528.660706 794.276306,523.352722 792.132507,517.921936 
	C782.940247,520.927673 774.400391,523.720093 765.604187,526.596313 
	C770.010437,535.155212 774.156433,543.208740 778.287903,551.233948 
	C784.539978,548.310730 789.994629,545.010193 795.906189,543.208313 
	C801.756165,541.425171 801.014343,538.545776 798.467041,533.968750 
M672.967529,492.629608 
	C674.653931,497.448822 676.144226,502.352173 678.152649,507.033234 
	C678.716248,508.346710 681.137329,510.099121 682.139221,509.793121 
	C690.190979,507.334015 698.106934,504.430145 706.295776,501.581757 
	C701.886414,493.232361 697.663757,485.236542 693.560608,477.467041 
	C686.025269,480.798889 678.578064,484.091766 670.944885,487.466888 
	C671.474243,489.020325 671.979797,490.503693 672.967529,492.629608 
M726.964478,618.666260 
	C728.697144,623.022827 730.429810,627.379395 732.162476,631.735962 
	C732.391907,631.649719 732.621399,631.563477 732.850830,631.477234 
	C732.850830,613.397583 732.850830,595.317871 732.850830,576.776428 
	C725.634827,579.420959 718.705078,581.960510 711.451416,584.618896 
	C715.037048,592.869019 718.335022,600.457214 721.482727,607.699585 
	C724.784485,607.414368 727.783508,607.155334 730.641113,606.908447 
	C731.963318,612.338257 730.304138,614.841553 724.721924,614.119995 
	C725.449707,615.699646 725.980042,616.850708 726.964478,618.666260 
M757.788147,583.971375 
	C751.699646,581.594666 745.611145,579.217957 739.310303,576.758362 
	C739.310303,595.294373 739.310303,613.362549 739.310303,632.019653 
	C742.081238,625.763000 744.582336,620.115662 747.134155,614.353699 
	C746.352356,614.198486 745.859619,613.979126 745.395081,614.028076 
	C742.284363,614.356140 740.559875,613.292175 740.995239,609.872620 
	C741.457214,606.244019 743.273621,606.916626 745.902344,607.837891 
	C747.990601,608.569824 750.176941,608.234924 751.405762,605.291382 
	C753.929382,599.246033 757.068420,593.459595 759.703491,587.456543 
	C760.068054,586.626221 759.006409,585.169861 757.788147,583.971375 
M641.021912,519.551208 
	C641.504028,522.566833 641.986206,525.582520 642.461853,528.557190 
	C649.919556,531.779663 657.514526,535.061401 665.280334,538.416992 
	C668.011047,531.202515 670.587097,524.396912 673.104187,517.746826 
	C655.366577,517.746826 637.913208,517.746826 620.459839,517.746826 
	C620.434875,518.065857 620.409973,518.384888 620.385071,518.703918 
	C625.294434,520.897339 630.203796,523.090820 634.952820,525.212585 
	C637.247803,523.241699 635.313171,518.173035 641.021912,519.551208 
M732.114014,397.489349 
	C729.719604,402.849579 727.325256,408.209778 724.841492,413.770081 
	C727.525818,415.675659 734.636536,414.167236 730.128113,421.117340 
	C728.260132,420.947906 726.146973,420.601471 724.039307,420.632507 
	C723.033936,420.647247 721.465454,421.110840 721.129395,421.828705 
	C718.213318,428.056702 715.628052,434.439728 712.704773,440.664124 
	C711.580627,443.057709 711.950745,444.175751 714.447571,445.028381 
	C720.614014,447.134155 726.720642,449.415100 732.931458,451.654541 
	C732.931458,433.485596 732.931458,415.524567 732.114014,397.489349 
M741.968811,401.709473 
	C741.136719,400.258270 740.304565,398.807037 739.208374,396.895203 
	C739.208374,415.524475 739.208374,433.522339 739.208374,451.754730 
	C746.377380,448.944733 753.282654,446.238129 760.246582,443.508514 
	C756.515869,435.224701 753.047485,427.523407 749.716614,420.127441 
	C746.514954,420.504578 743.878235,420.815155 741.238403,421.126099 
	C741.238403,418.639221 741.238403,416.863953 741.238403,415.392609 
	C743.323547,414.926086 745.114624,414.525360 747.124207,414.075745 
	C745.248840,409.835632 743.625977,406.166534 741.968811,401.709473 
M629.377258,505.962433 
	C626.018921,507.419891 622.660583,508.877350 618.230835,510.799774 
	C637.313416,510.799774 655.041443,510.799774 673.117432,510.799774 
	C670.364075,503.717133 667.725586,496.929901 664.981873,489.872040 
	C658.947998,492.610413 653.518311,495.915009 647.626099,497.501740 
	C642.216858,498.958405 641.491943,501.773376 642.007874,506.389313 
	C642.132996,507.508728 640.820923,508.788788 640.169739,509.994995 
	C638.781372,509.047943 637.046753,508.351715 636.119202,507.070923 
	C635.432190,506.122314 635.794861,504.413452 635.663818,502.701935 
	C633.435791,503.799377 631.722473,504.643341 629.377258,505.962433 
M824.597290,497.964905 
	C818.614136,495.294678 812.630981,492.624420 806.617432,489.940613 
	C804.030823,496.901733 801.489807,503.740082 798.850342,510.843353 
	C816.990479,510.843353 834.738831,510.843353 853.460083,510.843353 
	C847.287781,508.012085 841.901550,505.541382 836.237000,502.942993 
	C836.147949,504.079468 836.049683,505.024384 836.004211,505.971863 
	C835.863037,508.913971 834.552185,510.630402 831.412354,509.959106 
	C828.268005,509.286896 828.902283,507.452545 829.852844,505.139221 
	C830.430908,503.732422 829.959412,501.894348 829.959412,500.563904 
	C828.216492,499.600494 826.806396,498.821075 824.597290,497.964905 
M792.993164,461.517914 
	C789.691589,465.024567 786.390076,468.531219 782.583679,472.574097 
	C789.628357,475.780945 796.510315,478.913757 803.437866,482.067322 
	C806.522095,474.099823 809.559570,466.253052 812.486816,458.691132 
	C810.251099,455.660370 808.062683,452.693817 805.616333,449.377533 
	C801.777283,453.060272 797.633057,457.035736 792.993164,461.517914 
M677.999146,567.499207 
	C681.703613,563.922058 685.408081,560.344910 689.644714,556.253906 
	C682.264771,552.847351 675.523560,549.735657 668.504883,546.495850 
	C665.236694,554.738159 662.182556,562.440857 659.166687,570.046875 
	C661.518372,572.929504 663.892517,575.839661 666.539673,579.084534 
	C669.855042,575.731445 673.677368,571.865540 677.999146,567.499207 
M668.038269,481.325439 
	C675.003845,478.646240 681.969482,475.967041 688.982544,473.269592 
	C681.051086,464.929718 673.510437,457.000793 666.536560,449.667786 
	C664.572571,451.895966 663.014099,453.338409 661.872009,455.057495 
	C660.863464,456.575531 659.294373,458.762024 659.740662,460.032440 
	C662.178833,466.973877 665.162537,473.723694 668.038269,481.325439 
M690.342224,442.036530 
	C689.555603,441.858490 688.662354,441.862427 687.999268,441.473694 
	C682.671448,438.350189 677.649963,436.636902 673.826355,443.634155 
	C673.390808,444.431396 672.220398,444.827148 671.515564,445.321533 
	C679.045898,452.843445 686.429626,460.218903 694.051880,467.832672 
	C697.023621,461.157715 700.050842,454.358063 703.272156,447.122528 
	C699.024109,445.522369 695.013306,444.011566 690.342224,442.036530 
M790.498657,573.001465 
	C786.338257,568.849182 782.177795,564.696838 777.923584,560.450867 
	C774.702454,567.551086 771.807495,573.932312 768.615967,580.967224 
	C775.400391,583.688538 782.103516,586.186462 788.632812,589.076965 
	C791.895935,590.521484 794.054199,589.919189 796.329956,587.322571 
	C797.562805,585.915894 799.563538,585.182312 801.649719,583.874268 
	C798.084900,580.402466 794.541870,576.951904 790.498657,573.001465 
M820.679016,532.027710 
	C823.776245,530.847046 826.873535,529.666382 829.605225,528.625061 
	C831.613220,525.180298 824.424500,518.699646 833.629333,517.694214 
	C822.164795,517.694214 810.700317,517.694214 798.779236,517.694214 
	C801.401062,524.669312 804.070679,531.771545 806.681885,538.718384 
	C811.438721,536.489197 815.729248,534.478455 820.679016,532.027710 
M769.488037,418.001587 
	C765.343262,418.461548 761.198486,418.921539 756.419800,419.451874 
	C759.827209,427.221588 763.031616,434.528351 766.139221,441.614502 
	C773.572205,438.721588 780.807312,435.905670 788.658203,432.850098 
	C785.427979,429.210052 782.402832,426.371826 780.089966,423.039276 
	C777.626404,419.489471 774.912109,417.215729 769.488037,418.001587 
M698.908997,417.999023 
	C697.851501,418.270386 696.432922,418.198334 695.795044,418.868896 
	C691.665039,423.210632 687.705017,427.714233 683.010254,432.917328 
	C691.013855,435.865692 698.241577,438.528259 705.981934,441.379639 
	C709.229431,433.857544 712.298706,426.748352 715.468079,419.407196 
	C709.815063,418.899872 704.798523,418.449677 698.908997,417.999023 
M707.032227,590.300903 
	C706.795532,588.206299 706.894714,586.302124 703.541138,587.695984 
	C696.878418,590.465393 690.005737,592.729675 683.202454,595.208923 
	C684.329590,596.862122 685.105957,598.301086 686.161499,599.492737 
	C689.285828,603.019775 692.030273,608.547424 695.824585,609.433655 
	C701.772034,610.822876 708.457581,609.051575 715.127502,608.598694 
	C712.297241,602.093628 709.877686,596.532471 707.032227,590.300903 
M656.959595,559.432678 
	C658.892456,554.416077 660.825256,549.399414 662.818176,544.226746 
	C655.650024,541.103271 648.625427,538.042297 641.527954,534.949585 
	C640.995178,538.011475 640.324219,540.833862 640.042847,543.694580 
	C639.400940,550.217957 638.837952,556.691040 646.012085,560.630127 
	C648.895264,562.213257 651.370544,564.539246 654.332703,566.752136 
	C655.195007,564.005127 655.816101,562.026672 656.959595,559.432678 
M662.380310,482.912750 
	C659.511902,476.000000 656.643494,469.087250 653.662537,461.903320 
	C649.310425,465.550201 645.100342,468.908447 641.123352,472.523193 
	C640.053955,473.495270 639.003235,475.313019 639.128235,476.630127 
	C639.644958,482.073761 640.616394,487.474213 641.547180,493.741882 
	C648.858948,490.226349 655.878967,486.851074 662.380310,482.912750 
M822.427063,490.037048 
	C825.200134,491.259399 827.973267,492.481750 830.563110,493.623352 
	C831.050598,489.627502 831.788147,485.764374 831.908875,481.882050 
	C832.000671,478.930756 832.348999,475.090729 830.751526,473.167267 
	C827.256775,468.959076 822.597229,465.718140 817.942505,461.672821 
	C814.981323,469.243195 812.154907,476.468842 809.102234,484.273163 
	C813.257629,486.158783 817.448364,488.060425 822.427063,490.037048 
M814.036072,557.392334 
	C815.380249,560.558777 816.724426,563.725220 818.561829,568.053589 
	C821.889709,564.350525 824.208862,560.605652 827.542175,558.379272 
	C831.067078,556.024963 832.480835,553.533203 832.014771,549.539673 
	C831.455811,544.750366 831.027893,539.945862 830.527710,534.993713 
	C823.211426,538.204895 816.084045,541.333252 808.884766,544.493103 
	C810.633545,548.664734 812.296936,552.632812 814.036072,557.392334 
M777.789856,607.776123 
	C781.252747,603.878479 784.715637,599.980896 788.575256,595.636719 
	C780.947937,592.594788 773.784973,589.737976 766.408020,586.795898 
	C763.142273,594.208008 760.000793,601.338196 756.843384,608.504456 
	C760.926147,609.037781 764.621216,609.884399 768.317139,609.887939 
	C771.270935,609.890808 774.225769,608.867737 777.789856,607.776123 
M835.001465,519.225525 
	C835.475281,521.348633 835.949097,523.471802 836.434631,525.647278 
	C841.584656,523.303528 846.717590,520.967590 851.850464,518.631653 
	C851.785278,518.088745 851.720093,517.545898 851.654907,517.003052 
	C847.965942,517.003052 844.269104,516.859680 840.591431,517.062744 
	C838.712830,517.166382 836.868591,517.891113 835.001465,519.225525 
M655.497925,589.999146 
	C658.433716,587.440735 661.369568,584.882385 664.137573,582.470215 
	C660.764343,580.259583 658.538635,578.800964 656.262817,577.309570 
	C654.078857,583.048401 651.900146,588.773438 649.721436,594.498535 
	C650.217773,594.887207 650.714111,595.275879 651.210449,595.664612 
	C652.472473,593.943909 653.734497,592.223206 655.497925,589.999146 
M659.038147,449.434326 
	C660.485291,448.701935 661.932373,447.969543 662.915527,447.471954 
	C658.680359,443.038452 654.487915,438.649628 650.295471,434.260803 
	C651.861145,439.826416 653.968201,445.127777 656.207336,450.372742 
	C656.279663,450.542206 657.703247,450.134827 659.038147,449.434326 
M739.003540,522.330322 
	C739.003540,525.467651 739.003540,528.604980 739.003540,531.656189 
	C741.288818,532.610596 743.308655,533.454102 745.422668,534.336975 
	C746.671448,527.926331 746.316772,526.860107 741.909485,523.402222 
	C741.018860,522.703491 740.020203,522.142456 739.003540,522.330322 
M743.212646,494.981964 
	C736.104187,496.986816 739.950317,502.458374 739.474182,506.681122 
	C741.789185,504.912415 743.754456,502.944061 745.619690,500.885040 
	C748.273376,497.955658 746.417664,496.182404 743.212646,494.981964 
M725.969971,497.313416 
	C725.884644,498.275421 725.352539,499.606903 725.790344,500.136200 
	C727.803101,502.569885 730.086731,504.779602 732.968689,507.798248 
	C732.843994,501.574188 734.770386,495.866730 727.516541,494.120331 
	C727.023682,494.934326 726.530762,495.748291 725.969971,497.313416 
M728.554077,524.966492 
	C724.809021,527.694763 724.815857,530.706238 727.837463,533.960510 
	C729.506775,533.088318 731.146301,532.231750 732.998535,531.263977 
	C732.998535,529.796631 732.998596,528.152771 732.998596,526.508911 
	C732.998596,524.815979 732.998535,523.122986 732.998535,521.253967 
	C731.388367,522.544312 730.224182,523.477234 728.554077,524.966492 
M745.381714,509.081116 
	C745.164917,509.705536 744.731506,510.866241 744.761902,510.878510 
	C749.114136,512.635925 754.711426,510.423767 756.674438,506.240845 
	C751.966125,501.824463 748.934875,505.100616 745.381714,509.081116 
M756.492615,522.024414 
	C754.298096,515.545776 749.082214,517.291565 743.863220,516.933838 
	C747.532898,521.613098 750.668213,525.636169 756.492615,522.024414 
M719.289673,517.192383 
	C718.079041,518.844421 716.868469,520.496460 715.609802,522.214111 
	C721.370361,525.051086 722.689331,524.437988 727.553101,517.013062 
	C725.020630,517.013062 722.561768,517.013062 719.289673,517.192383 
M726.057068,508.580200 
	C723.284119,505.714417 720.827698,501.792206 715.933472,505.772461 
	C716.716064,507.369598 717.549622,509.070862 718.489746,510.989441 
	C721.181091,510.989441 723.977783,511.013885 726.772583,510.953491 
	C727.067688,510.947113 727.641479,510.288879 727.591492,510.194244 
	C727.368652,509.772522 726.966125,509.445740 726.057068,508.580200 
M741.324707,488.966248 
	C744.433105,484.451660 739.698425,481.482025 739.426392,477.623199 
	C739.004395,481.178528 738.965454,484.661957 739.070251,488.141052 
	C739.079773,488.456299 740.014282,488.743683 741.324707,488.966248 
M729.055054,487.453094 
	C730.179993,488.045715 731.304871,488.638306 732.833862,489.443787 
	C732.833862,484.901764 732.833862,481.206116 732.833862,476.507233 
	C731.336975,480.503326 730.189941,483.565613 729.055054,487.453094 
M767.001404,519.493286 
	C768.883789,518.841858 770.766174,518.190430 773.299072,517.313843 
	C769.121704,517.313843 765.687927,517.313843 761.990906,517.313843 
	C762.108887,518.592957 762.218872,519.785400 762.330627,520.997070 
	C763.907654,520.588196 765.123352,520.273010 767.001404,519.493286 
z"/>
<path fill="#000000" opacity="1.000000" stroke="none" 
	d="
M752.095947,574.979065 
	C747.563660,573.313721 743.436340,571.666565 739.353882,570.037292 
	C742.383728,561.197876 745.344116,552.561035 748.393250,543.665344 
	C756.913330,547.962097 765.040527,552.060669 773.141174,556.145874 
	C769.661804,564.020996 766.389893,571.426453 763.092896,578.888794 
	C759.278625,577.487366 755.889771,576.242310 752.095947,574.979065 
z"/>
<path fill="#000000" opacity="1.000000" stroke="none" 
	d="
M724.755310,480.637573 
	C724.015686,482.266479 723.490662,483.565430 722.926453,484.961395 
	C714.640442,480.506775 706.636597,476.203796 698.619385,471.893677 
	C701.942261,464.925964 705.001770,458.745819 707.827454,452.460541 
	C708.851624,450.182434 709.823364,449.619049 712.293030,450.617432 
	C718.074768,452.954651 724.061829,454.784851 729.835938,457.138855 
	C730.779175,457.523438 731.822754,459.763306 731.523438,460.753937 
	C729.536133,467.331390 727.195618,473.802155 724.755310,480.637573 
z"/>
<path fill="#000000" opacity="1.000000" stroke="none" 
	d="
M671.045776,539.950256 
	C673.896545,532.442932 676.744263,525.329346 679.701782,517.941406 
	C687.676086,520.394897 695.784790,522.809631 703.811829,525.471008 
	C704.716370,525.770935 705.979919,527.881775 705.691833,528.447815 
	C701.834167,536.027466 697.729858,543.481506 693.438354,551.426758 
	C685.853638,547.673340 678.448181,544.008667 671.045776,539.950256 
z"/>
<path fill="#000000" opacity="1.000000" stroke="none" 
	d="
M744.014832,472.905212 
	C742.427063,467.807404 740.857422,463.118195 739.180969,458.109894 
	C746.899963,455.274384 754.788757,452.376495 762.644287,449.490784 
	C765.927979,456.725861 769.298157,464.151581 772.786255,471.837067 
	C764.984314,476.073120 756.959717,480.430054 748.597412,484.970337 
	C747.111328,481.175354 745.572144,477.244598 744.014832,472.905212 
z"/>
<path fill="#000000" opacity="1.000000" stroke="none" 
	d="
M793.020020,507.953796 
	C792.286804,509.015747 791.358948,510.392548 790.893860,510.250763 
	C782.946960,507.829010 775.053894,505.229645 767.164734,502.621765 
	C766.750488,502.484833 766.476318,501.924011 765.889404,501.295471 
	C769.904297,493.301666 773.972595,485.201538 777.985291,477.212006 
	C785.841248,480.752380 793.375366,484.147736 801.164001,487.657806 
	C798.456238,494.292542 795.748535,500.927246 793.020020,507.953796 
z"/>
<path fill="#000000" opacity="1.000000" stroke="none" 
	d="
M725.734009,550.339111 
	C728.023254,557.234436 730.082092,563.790100 732.127747,570.303955 
	C724.404968,573.100891 716.911011,575.814941 708.822937,578.744141 
	C705.664001,571.669434 702.350769,564.249329 698.800354,556.297974 
	C706.794434,552.106506 714.814331,547.901489 723.255737,543.475525 
	C724.096252,545.914917 724.799927,547.957214 725.734009,550.339111 
z"/>
<path fill="#000000" opacity="1.000000" stroke="none" 
	d="
M798.716919,534.281799 
	C801.014343,538.545776 801.756165,541.425171 795.906189,543.208313 
	C789.994629,545.010193 784.539978,548.310730 778.287903,551.233948 
	C774.156433,543.208740 770.010437,535.155212 765.604187,526.596313 
	C774.400391,523.720093 782.940247,520.927673 792.132507,517.921936 
	C794.276306,523.352722 796.371704,528.660706 798.716919,534.281799 
z"/>
<path fill="#000000" opacity="1.000000" stroke="none" 
	d="
M672.726440,492.308350 
	C671.979797,490.503693 671.474243,489.020325 670.944885,487.466888 
	C678.578064,484.091766 686.025269,480.798889 693.560608,477.467041 
	C697.663757,485.236542 701.886414,493.232361 706.295776,501.581757 
	C698.106934,504.430145 690.190979,507.334015 682.139221,509.793121 
	C681.137329,510.099121 678.716248,508.346710 678.152649,507.033234 
	C676.144226,502.352173 674.653931,497.448822 672.726440,492.308350 
z"/>
<path fill="#000000" opacity="1.000000" stroke="none" 
	d="
M815.774658,430.580353 
	C803.149170,443.022552 790.523804,455.464844 777.657593,468.144409 
	C774.505798,461.180176 771.382690,454.279266 768.204590,447.256897 
	C776.104370,444.246155 783.998047,441.237732 792.282654,438.080353 
	C795.670410,438.023041 796.703369,449.031616 802.659912,440.666443 
	C801.519409,438.982849 800.306641,437.192596 798.951904,435.192749 
	C804.185852,433.400208 809.161316,431.696167 814.735718,430.130371 
	C815.481323,430.372559 815.628052,430.476501 815.774658,430.580353 
z"/>
<path fill="#000000" opacity="1.000000" stroke="none" 
	d="
M655.224365,598.418579 
	C667.317505,585.419922 679.410583,572.421326 691.503723,559.422668 
	C692.348389,559.944397 693.193054,560.466125 694.037720,560.987854 
	C697.070129,567.384094 700.102600,573.780273 703.375427,580.683533 
	C695.686157,583.841858 688.249939,587.034668 680.671692,589.844299 
	C679.656860,590.220520 677.877869,588.741028 676.534851,587.976562 
	C674.660645,586.909851 673.356445,582.883362 670.731812,586.090027 
	C669.598694,587.474365 670.363708,590.412354 670.214294,593.842651 
	C666.907166,595.117493 661.873657,597.057739 656.252258,598.864075 
	C655.517639,598.626282 655.370972,598.522400 655.224365,598.418579 
z"/>
<path fill="#000000" opacity="1.000000" stroke="none" 
	d="
M726.737427,618.334045 
	C725.980042,616.850708 725.449707,615.699646 724.721924,614.119995 
	C730.304138,614.841553 731.963318,612.338257 730.641113,606.908447 
	C727.783508,607.155334 724.784485,607.414368 721.482727,607.699585 
	C718.335022,600.457214 715.037048,592.869019 711.451416,584.618896 
	C718.705078,581.960510 725.634827,579.420959 732.850830,576.776428 
	C732.850830,595.317871 732.850830,613.397583 732.850830,631.477234 
	C732.621399,631.563477 732.391907,631.649719 732.162476,631.735962 
	C730.429810,627.379395 728.697144,623.022827 726.737427,618.334045 
z"/>
<path fill="#000000" opacity="1.000000" stroke="none" 
	d="
M758.196594,583.987366 
	C759.006409,585.169861 760.068054,586.626221 759.703491,587.456543 
	C757.068420,593.459595 753.929382,599.246033 751.405762,605.291382 
	C750.176941,608.234924 747.990601,608.569824 745.902344,607.837891 
	C743.273621,606.916626 741.457214,606.244019 740.995239,609.872620 
	C740.559875,613.292175 742.284363,614.356140 745.395081,614.028076 
	C745.859619,613.979126 746.352356,614.198486 747.134155,614.353699 
	C744.582336,620.115662 742.081238,625.763000 739.310303,632.019653 
	C739.310303,613.362549 739.310303,595.294373 739.310303,576.758362 
	C745.611145,579.217957 751.699646,581.594666 758.196594,583.987366 
z"/>
<path fill="#000000" opacity="1.000000" stroke="none" 
	d="
M640.668701,519.297607 
	C635.313171,518.173035 637.247803,523.241699 634.952820,525.212585 
	C630.203796,523.090820 625.294434,520.897339 620.385071,518.703918 
	C620.409973,518.384888 620.434875,518.065857 620.459839,517.746826 
	C637.913208,517.746826 655.366577,517.746826 673.104187,517.746826 
	C670.587097,524.396912 668.011047,531.202515 665.280334,538.416992 
	C657.514526,535.061401 649.919556,531.779663 642.461853,528.557190 
	C641.986206,525.582520 641.504028,522.566833 640.668701,519.297607 
z"/>
<path fill="#000000" opacity="1.000000" stroke="none" 
	d="
M732.522705,397.526428 
	C732.931458,415.524567 732.931458,433.485596 732.931458,451.654541 
	C726.720642,449.415100 720.614014,447.134155 714.447571,445.028381 
	C711.950745,444.175751 711.580627,443.057709 712.704773,440.664124 
	C715.628052,434.439728 718.213318,428.056702 721.129395,421.828705 
	C721.465454,421.110840 723.033936,420.647247 724.039307,420.632507 
	C726.146973,420.601471 728.260132,420.947906 730.128113,421.117340 
	C734.636536,414.167236 727.525818,415.675659 724.841492,413.770081 
	C727.325256,408.209778 729.719604,402.849579 732.522705,397.526428 
z"/>
<path fill="#000000" opacity="1.000000" stroke="none" 
	d="
M741.985962,402.103455 
	C743.625977,406.166534 745.248840,409.835632 747.124207,414.075745 
	C745.114624,414.525360 743.323547,414.926086 741.238403,415.392609 
	C741.238403,416.863953 741.238403,418.639221 741.238403,421.126099 
	C743.878235,420.815155 746.514954,420.504578 749.716614,420.127441 
	C753.047485,427.523407 756.515869,435.224701 760.246582,443.508514 
	C753.282654,446.238129 746.377380,448.944733 739.208374,451.754730 
	C739.208374,433.522339 739.208374,415.524475 739.208374,396.895203 
	C740.304565,398.807037 741.136719,400.258270 741.985962,402.103455 
z"/>
<path fill="#000000" opacity="1.000000" stroke="none" 
	d="
M629.693176,505.724854 
	C631.722473,504.643341 633.435791,503.799377 635.663818,502.701935 
	C635.794861,504.413452 635.432190,506.122314 636.119202,507.070923 
	C637.046753,508.351715 638.781372,509.047943 640.169739,509.994995 
	C640.820923,508.788788 642.132996,507.508728 642.007874,506.389313 
	C641.491943,501.773376 642.216858,498.958405 647.626099,497.501740 
	C653.518311,495.915009 658.947998,492.610413 664.981873,489.872040 
	C667.725586,496.929901 670.364075,503.717133 673.117432,510.799774 
	C655.041443,510.799774 637.313416,510.799774 618.230835,510.799774 
	C622.660583,508.877350 626.018921,507.419891 629.693176,505.724854 
z"/>
<path fill="#000000" opacity="1.000000" stroke="none" 
	d="
M824.996826,498.003265 
	C826.806396,498.821075 828.216492,499.600494 829.959412,500.563904 
	C829.959412,501.894348 830.430908,503.732422 829.852844,505.139221 
	C828.902283,507.452545 828.268005,509.286896 831.412354,509.959106 
	C834.552185,510.630402 835.863037,508.913971 836.004211,505.971863 
	C836.049683,505.024384 836.147949,504.079468 836.237000,502.942993 
	C841.901550,505.541382 847.287781,508.012085 853.460083,510.843353 
	C834.738831,510.843353 816.990479,510.843353 798.850342,510.843353 
	C801.489807,503.740082 804.030823,496.901733 806.617432,489.940613 
	C812.630981,492.624420 818.614136,495.294678 824.996826,498.003265 
z"/>
<path fill="#000000" opacity="1.000000" stroke="none" 
	d="
M793.240967,461.264587 
	C797.633057,457.035736 801.777283,453.060272 805.616333,449.377533 
	C808.062683,452.693817 810.251099,455.660370 812.486816,458.691132 
	C809.559570,466.253052 806.522095,474.099823 803.437866,482.067322 
	C796.510315,478.913757 789.628357,475.780945 782.583679,472.574097 
	C786.390076,468.531219 789.691589,465.024567 793.240967,461.264587 
z"/>
<path fill="#000000" opacity="1.000000" stroke="none" 
	d="
M677.749390,567.749451 
	C673.677368,571.865540 669.855042,575.731445 666.539673,579.084534 
	C663.892517,575.839661 661.518372,572.929504 659.166687,570.046875 
	C662.182556,562.440857 665.236694,554.738159 668.504883,546.495850 
	C675.523560,549.735657 682.264771,552.847351 689.644714,556.253906 
	C685.408081,560.344910 681.703613,563.922058 677.749390,567.749451 
z"/>
<path fill="#000000" opacity="1.000000" stroke="none" 
	d="
M667.998535,480.932404 
	C665.162537,473.723694 662.178833,466.973877 659.740662,460.032440 
	C659.294373,458.762024 660.863464,456.575531 661.872009,455.057495 
	C663.014099,453.338409 664.572571,451.895966 666.536560,449.667786 
	C673.510437,457.000793 681.051086,464.929718 688.982544,473.269592 
	C681.969482,475.967041 675.003845,478.646240 667.998535,480.932404 
z"/>
<path fill="#000000" opacity="1.000000" stroke="none" 
	d="
M690.672363,442.268677 
	C695.013306,444.011566 699.024109,445.522369 703.272156,447.122528 
	C700.050842,454.358063 697.023621,461.157715 694.051880,467.832672 
	C686.429626,460.218903 679.045898,452.843445 671.515564,445.321533 
	C672.220398,444.827148 673.390808,444.431396 673.826355,443.634155 
	C677.649963,436.636902 682.671448,438.350189 687.999268,441.473694 
	C688.662354,441.862427 689.555603,441.858490 690.672363,442.268677 
z"/>
<path fill="#000000" opacity="1.000000" stroke="none" 
	d="
M806.432129,579.782959 
	C798.665771,571.855896 790.899353,563.928894 782.845459,555.708435 
	C789.648926,552.737793 796.426941,549.778320 803.310730,546.772583 
	C806.080200,553.655579 808.504211,560.409790 811.522461,566.887207 
	C813.142334,570.363464 811.874329,572.032959 809.357666,574.024902 
	C808.205872,574.936523 807.766846,576.748840 806.869812,578.745850 
	C806.634033,579.486938 806.533081,579.635010 806.432129,579.782959 
z"/>
<path fill="#000000" opacity="1.000000" stroke="none" 
	d="
M790.748779,573.251465 
	C794.541870,576.951904 798.084900,580.402466 801.649719,583.874268 
	C799.563538,585.182312 797.562805,585.915894 796.329956,587.322571 
	C794.054199,589.919189 791.895935,590.521484 788.632812,589.076965 
	C782.103516,586.186462 775.400391,583.688538 768.615967,580.967224 
	C771.807495,573.932312 774.702454,567.551086 777.923584,560.450867 
	C782.177795,564.696838 786.338257,568.849182 790.748779,573.251465 
z"/>
<path fill="#000000" opacity="1.000000" stroke="none" 
	d="
M820.349426,532.247742 
	C815.729248,534.478455 811.438721,536.489197 806.681885,538.718384 
	C804.070679,531.771545 801.401062,524.669312 798.779236,517.694214 
	C810.700317,517.694214 822.164795,517.694214 833.629333,517.694214 
	C824.424500,518.699646 831.613220,525.180298 829.605225,528.625061 
	C826.873535,529.666382 823.776245,530.847046 820.349426,532.247742 
z"/>
<path fill="#000000" opacity="1.000000" stroke="none" 
	d="
M769.939026,418.001312 
	C774.912109,417.215729 777.626404,419.489471 780.089966,423.039276 
	C782.402832,426.371826 785.427979,429.210052 788.658203,432.850098 
	C780.807312,435.905670 773.572205,438.721588 766.139221,441.614502 
	C763.031616,434.528351 759.827209,427.221588 756.419800,419.451874 
	C761.198486,418.921539 765.343262,418.461548 769.939026,418.001312 
z"/>
<path fill="#000000" opacity="1.000000" stroke="none" 
	d="
M699.345520,417.999268 
	C704.798523,418.449677 709.815063,418.899872 715.468079,419.407196 
	C712.298706,426.748352 709.229431,433.857544 705.981934,441.379639 
	C698.241577,438.528259 691.013855,435.865692 683.010254,432.917328 
	C687.705017,427.714233 691.665039,423.210632 695.795044,418.868896 
	C696.432922,418.198334 697.851501,418.270386 699.345520,417.999268 
z"/>
<path fill="#000000" opacity="1.000000" stroke="none" 
	d="
M707.245178,590.636108 
	C709.877686,596.532471 712.297241,602.093628 715.127502,608.598694 
	C708.457581,609.051575 701.772034,610.822876 695.824585,609.433655 
	C692.030273,608.547424 689.285828,603.019775 686.161499,599.492737 
	C685.105957,598.301086 684.329590,596.862122 683.202454,595.208923 
	C690.005737,592.729675 696.878418,590.465393 703.541138,587.695984 
	C706.894714,586.302124 706.795532,588.206299 707.245178,590.636108 
z"/>
<path fill="#000000" opacity="1.000000" stroke="none" 
	d="
M656.698364,559.740417 
	C655.816101,562.026672 655.195007,564.005127 654.332703,566.752136 
	C651.370544,564.539246 648.895264,562.213257 646.012085,560.630127 
	C638.837952,556.691040 639.400940,550.217957 640.042847,543.694580 
	C640.324219,540.833862 640.995178,538.011475 641.527954,534.949585 
	C648.625427,538.042297 655.650024,541.103271 662.818176,544.226746 
	C660.825256,549.399414 658.892456,554.416077 656.698364,559.740417 
z"/>
<path fill="#000000" opacity="1.000000" stroke="none" 
	d="
M662.639648,483.194275 
	C655.878967,486.851074 648.858948,490.226349 641.547180,493.741882 
	C640.616394,487.474213 639.644958,482.073761 639.128235,476.630127 
	C639.003235,475.313019 640.053955,473.495270 641.123352,472.523193 
	C645.100342,468.908447 649.310425,465.550201 653.662537,461.903320 
	C656.643494,469.087250 659.511902,476.000000 662.639648,483.194275 
z"/>
<path fill="#000000" opacity="1.000000" stroke="none" 
	d="
M822.033081,489.999573 
	C817.448364,488.060425 813.257629,486.158783 809.102234,484.273163 
	C812.154907,476.468842 814.981323,469.243195 817.942505,461.672821 
	C822.597229,465.718140 827.256775,468.959076 830.751526,473.167267 
	C832.348999,475.090729 832.000671,478.930756 831.908875,481.882050 
	C831.788147,485.764374 831.050598,489.627502 830.563110,493.623352 
	C827.973267,492.481750 825.200134,491.259399 822.033081,489.999573 
z"/>
<path fill="#000000" opacity="1.000000" stroke="none" 
	d="
M813.998169,556.996582 
	C812.296936,552.632812 810.633545,548.664734 808.884766,544.493103 
	C816.084045,541.333252 823.211426,538.204895 830.527710,534.993713 
	C831.027893,539.945862 831.455811,544.750366 832.014771,549.539673 
	C832.480835,553.533203 831.067078,556.024963 827.542175,558.379272 
	C824.208862,560.605652 821.889709,564.350525 818.561829,568.053589 
	C816.724426,563.725220 815.380249,560.558777 813.998169,556.996582 
z"/>
<path fill="#000000" opacity="1.000000" stroke="none" 
	d="
M777.484985,608.038086 
	C774.225769,608.867737 771.270935,609.890808 768.317139,609.887939 
	C764.621216,609.884399 760.926147,609.037781 756.843384,608.504456 
	C760.000793,601.338196 763.142273,594.208008 766.408020,586.795898 
	C773.784973,589.737976 780.947937,592.594788 788.575256,595.636719 
	C784.715637,599.980896 781.252747,603.878479 777.484985,608.038086 
z"/>
<path fill="#000000" opacity="1.000000" stroke="none" 
	d="
M821.082886,436.073212 
	C819.214050,440.964783 817.345215,445.856354 815.329407,451.132660 
	C812.534546,449.635406 810.308350,448.442780 807.273987,446.817200 
	C811.637756,442.954254 815.767273,439.298645 820.319458,435.648621 
	C820.855652,435.793915 820.969299,435.933563 821.082886,436.073212 
z"/>
<path fill="#000000" opacity="1.000000" stroke="none" 
	d="
M835.005127,518.780334 
	C836.868591,517.891113 838.712830,517.166382 840.591431,517.062744 
	C844.269104,516.859680 847.965942,517.003052 851.654907,517.003052 
	C851.720093,517.545898 851.785278,518.088745 851.850464,518.631653 
	C846.717590,520.967590 841.584656,523.303528 836.434631,525.647278 
	C835.949097,523.471802 835.475281,521.348633 835.005127,518.780334 
z"/>
<path fill="#000000" opacity="1.000000" stroke="none" 
	d="
M815.926941,599.082886 
	C810.687561,597.217163 805.448120,595.351440 799.997559,593.410583 
	C800.989746,591.000305 802.010315,588.521057 803.305481,585.374878 
	C807.445496,589.349182 811.907654,593.632751 816.358459,598.328857 
	C816.207031,598.855286 816.067017,598.969055 815.926941,599.082886 
z"/>
<path fill="#000000" opacity="1.000000" stroke="none" 
	d="
M655.247192,590.250854 
	C653.734497,592.223206 652.472473,593.943909 651.210449,595.664612 
	C650.714111,595.275879 650.217773,594.887207 649.721436,594.498535 
	C651.900146,588.773438 654.078857,583.048401 656.262817,577.309570 
	C658.538635,578.800964 660.764343,580.259583 664.137573,582.470215 
	C661.369568,584.882385 658.433716,587.440735 655.247192,590.250854 
z"/>
<path fill="#000000" opacity="1.000000" stroke="none" 
	d="
M658.767578,449.715332 
	C657.703247,450.134827 656.279663,450.542206 656.207336,450.372742 
	C653.968201,445.127777 651.861145,439.826416 650.295471,434.260803 
	C654.487915,438.649628 658.680359,443.038452 662.915527,447.471954 
	C661.932373,447.969543 660.485291,448.701935 658.767578,449.715332 
z"/>
<path fill="#000000" opacity="1.000000" stroke="none" 
	d="
M657.073364,429.916901 
	C660.797607,431.274994 664.456848,432.867096 668.264282,433.926056 
	C672.145752,435.005615 673.550049,436.330597 670.016724,439.566284 
	C669.274048,440.246338 668.926514,441.357819 668.110901,442.763458 
	C664.217102,438.799377 660.426514,434.940277 656.645386,430.669434 
	C656.794373,430.144073 656.933899,430.030487 657.073364,429.916901 
z"/>
<path fill="#000000" opacity="1.000000" stroke="none" 
	d="
M807.555786,581.436279 
	C810.115173,580.245422 812.674561,579.054565 815.248962,577.856812 
	C817.216980,582.751099 819.109070,587.456665 820.866455,592.748657 
	C820.627686,593.482056 820.523682,593.629028 820.419739,593.776001 
	C816.337036,589.768921 812.254272,585.761841 807.886780,581.573364 
	C807.602051,581.391968 807.555786,581.436279 807.555786,581.436279 
z"/>
<path fill="#000000" opacity="1.000000" stroke="none" 
	d="
M739.037476,521.924072 
	C740.020203,522.142456 741.018860,522.703491 741.909485,523.402222 
	C746.316772,526.860107 746.671448,527.926331 745.422668,534.336975 
	C743.308655,533.454102 741.288818,532.610596 739.003540,531.656189 
	C739.003540,528.604980 739.003540,525.467651 739.037476,521.924072 
z"/>
<path fill="#000000" opacity="1.000000" stroke="none" 
	d="
M743.557861,494.804932 
	C746.417664,496.182404 748.273376,497.955658 745.619690,500.885040 
	C743.754456,502.944061 741.789185,504.912415 739.474182,506.681122 
	C739.950317,502.458374 736.104187,496.986816 743.557861,494.804932 
z"/>
<path fill="#000000" opacity="1.000000" stroke="none" 
	d="
M726.003906,496.937866 
	C726.530762,495.748291 727.023682,494.934326 727.517944,494.120636 
	C734.770386,495.866730 732.843994,501.574188 732.968689,507.798248 
	C730.086731,504.779602 727.803101,502.569885 725.790344,500.136200 
	C725.352539,499.606903 725.884644,498.275421 726.003906,496.937866 
z"/>
<path fill="#000000" opacity="1.000000" stroke="none" 
	d="
M728.807007,524.688354 
	C730.224182,523.477234 731.388367,522.544312 732.998535,521.253967 
	C732.998535,523.122986 732.998596,524.815979 732.998596,526.508911 
	C732.998596,528.152771 732.998535,529.796631 732.998535,531.263977 
	C731.146301,532.231750 729.506775,533.088318 727.837463,533.960510 
	C724.815857,530.706238 724.809021,527.694763 728.807007,524.688354 
z"/>
<path fill="#000000" opacity="1.000000" stroke="none" 
	d="
M745.664734,508.830261 
	C748.934875,505.100616 751.966125,501.824463 756.674438,506.240906 
	C754.711426,510.423767 749.114136,512.635925 744.761902,510.878510 
	C744.731506,510.866241 745.164917,509.705536 745.664734,508.830261 
z"/>
<path fill="#000000" opacity="1.000000" stroke="none" 
	d="
M756.599243,522.390381 
	C750.668213,525.636169 747.532898,521.613098 743.863220,516.933838 
	C749.082214,517.291565 754.298096,515.545776 756.599243,522.390381 
z"/>
<path fill="#000000" opacity="1.000000" stroke="none" 
	d="
M719.696289,517.102722 
	C722.561768,517.013062 725.020630,517.013062 727.553101,517.013062 
	C722.689331,524.437988 721.370361,525.051086 715.609802,522.214111 
	C716.868469,520.496460 718.079041,518.844421 719.696289,517.102722 
z"/>
<path fill="#000000" opacity="1.000000" stroke="none" 
	d="
M726.342773,508.832428 
	C726.966125,509.445740 727.368652,509.772522 727.591492,510.194244 
	C727.641479,510.288879 727.067688,510.947113 726.772583,510.953491 
	C723.977783,511.013885 721.181091,510.989441 718.489746,510.989441 
	C717.549622,509.070862 716.716064,507.369598 715.933472,505.772461 
	C720.827698,501.792206 723.284119,505.714417 726.342773,508.832428 
z"/>
<path fill="#000000" opacity="1.000000" stroke="none" 
	d="
M740.921997,489.005127 
	C740.014282,488.743683 739.079773,488.456299 739.070251,488.141052 
	C738.965454,484.661957 739.004395,481.178528 739.426392,477.623199 
	C739.698425,481.482025 744.433105,484.451660 740.921997,489.005127 
z"/>
<path fill="#000000" opacity="1.000000" stroke="none" 
	d="
M729.048950,487.040497 
	C730.189941,483.565613 731.336975,480.503326 732.833862,476.507233 
	C732.833862,481.206116 732.833862,484.901764 732.833862,489.443787 
	C731.304871,488.638306 730.179993,488.045715 729.048950,487.040497 
z"/>
<path fill="#000000" opacity="1.000000" stroke="none" 
	d="
M766.670227,519.725586 
	C765.123352,520.273010 763.907654,520.588196 762.330627,520.997070 
	C762.218872,519.785400 762.108887,518.592957 761.990906,517.313843 
	C765.687927,517.313843 769.121704,517.313843 773.299072,517.313843 
	C770.766174,518.190430 768.883789,518.841858 766.670227,519.725586 
z"/>
<path fill="#000000" opacity="1.000000" stroke="none" 
	d="
M708.914551,534.924377 
	C709.618652,533.164673 709.983032,531.120422 711.139526,529.739624 
	C711.991028,528.722961 713.877869,528.573486 715.303406,528.037598 
	C715.639648,528.633484 715.975830,529.229370 716.312073,529.825317 
	C714.234375,531.671326 712.156677,533.517334 709.667358,535.353699 
	C709.142029,535.204163 709.028259,535.064270 708.914551,534.924377 
z"/>
<path fill="#000000" opacity="1.000000" stroke="none" 
	d="
M763.083374,493.073547 
	C762.378784,494.832886 762.013367,496.876251 760.856934,498.257355 
	C760.005371,499.274353 758.120056,499.425690 756.695312,499.962738 
	C756.359436,499.366730 756.023499,498.770721 755.687561,498.174713 
	C757.765015,496.328827 759.842468,494.482941 762.331299,492.646118 
	C762.856140,492.794647 762.969727,492.934113 763.083374,493.073547 
z"/>
<path fill="#000000" opacity="1.000000" stroke="none" 
	d="
M709.580322,492.224457 
	C711.669373,494.292206 713.758423,496.359924 716.483215,499.056885 
	C710.462952,501.290039 710.720398,496.138031 709.132996,493.240540 
	C709.372559,492.518158 709.476440,492.371307 709.580322,492.224457 
z"/>
<path fill="#000000" opacity="1.000000" stroke="none" 
	d="
M656.429932,430.406677 
	C655.890015,430.115753 655.575012,429.675812 655.260071,429.235840 
	C655.799927,429.275848 656.339844,429.315887 656.976562,429.636414 
	C656.933899,430.030487 656.794373,430.144073 656.429932,430.406677 
z"/>
<path fill="#000000" opacity="1.000000" stroke="none" 
	d="
M709.405029,535.569580 
	C709.114075,536.109619 708.673828,536.424133 708.233582,536.738647 
	C708.273438,536.198425 708.313354,535.658264 708.633911,535.021240 
	C709.028259,535.064270 709.142029,535.204163 709.405029,535.569580 
z"/>
<path fill="#000000" opacity="1.000000" stroke="none" 
	d="
M815.129272,430.093750 
	C815.488037,429.676361 816.052185,429.433838 816.616211,429.191284 
	C816.484253,429.526764 816.352356,429.862244 815.997559,430.389099 
	C815.628052,430.476501 815.481323,430.372559 815.129272,430.093750 
z"/>
<path fill="#000000" opacity="1.000000" stroke="none" 
	d="
M820.593201,435.428955 
	C820.884155,434.889221 821.323914,434.574768 821.763733,434.260284 
	C821.723755,434.800049 821.683777,435.339783 821.363281,435.976379 
	C820.969299,435.933563 820.855652,435.793915 820.593201,435.428955 
z"/>
<path fill="#000000" opacity="1.000000" stroke="none" 
	d="
M816.573120,598.592529 
	C817.112854,598.883301 817.426575,599.323059 817.740234,599.762817 
	C817.200439,599.723083 816.660645,599.683350 816.023926,599.363281 
	C816.067017,598.969055 816.207031,598.855286 816.573120,598.592529 
z"/>
<path fill="#000000" opacity="1.000000" stroke="none" 
	d="
M655.869568,598.905029 
	C655.511047,599.322266 654.947388,599.564697 654.383728,599.807129 
	C654.515442,599.471680 654.647095,599.136169 655.001587,598.609619 
	C655.370972,598.522400 655.517639,598.626282 655.869568,598.905029 
z"/>
<path fill="#000000" opacity="1.000000" stroke="none" 
	d="
M820.906616,593.129395 
	C821.324036,593.487488 821.566528,594.051392 821.808960,594.615295 
	C821.473267,594.484070 821.137695,594.352844 820.610962,593.998779 
	C820.523682,593.629028 820.627686,593.482056 820.906616,593.129395 
z"/>
<path fill="#000000" opacity="1.000000" stroke="none" 
	d="
M709.093689,492.870544 
	C708.676086,492.512054 708.433411,491.948059 708.190735,491.384033 
	C708.526428,491.515533 708.862183,491.647034 709.389160,492.001465 
	C709.476440,492.371307 709.372559,492.518158 709.093689,492.870544 
z"/>
<path fill="#000000" opacity="1.000000" stroke="none" 
	d="
M762.593628,492.430328 
	C762.884521,491.890503 763.324463,491.575562 763.764404,491.260590 
	C763.724365,491.800385 763.684387,492.340179 763.363892,492.976746 
	C762.969727,492.934113 762.856140,492.794647 762.593628,492.430328 
z"/>
<path fill="#000000" opacity="1.000000" stroke="none" 
	d="
M806.906982,579.132446 
	C807.366882,579.525146 807.654663,580.124390 807.749146,581.079956 
	C807.555786,581.436279 807.602051,581.391968 807.610962,581.386108 
	C807.329529,580.975098 807.039124,580.570007 806.590454,579.973938 
	C806.533081,579.635010 806.634033,579.486938 806.906982,579.132446 
z"/>
</svg>